<svg width="15" height="15" viewBox="0 0 15 15" fill="none" xmlns="http://www.w3.org/2000/svg">
<path d="M9.09971 7.30051L13.9879 2.4123C14.2199 2.18071 14.3504 1.86646 14.3507 1.53866C14.351 1.21086 14.221 0.89637 13.9895 0.664376C13.7579 0.432383 13.4436 0.301888 13.1158 0.301598C12.788 0.301309 12.4735 0.431249 12.2415 0.662833L7.35333 5.55104L2.46512 0.662833C2.23313 0.430839 1.91848 0.300507 1.59039 0.300507C1.2623 0.300507 0.947652 0.430839 0.715659 0.662833C0.483665 0.894826 0.353333 1.20948 0.353333 1.53756C0.353333 1.86565 0.483665 2.1803 0.715659 2.4123L5.60387 7.30051L0.715659 12.1887C0.483665 12.4207 0.353333 12.7354 0.353333 13.0634C0.353333 13.3915 0.483665 13.7062 0.715659 13.9382C0.947652 14.1702 1.2623 14.3005 1.59039 14.3005C1.91848 14.3005 2.23313 14.1702 2.46512 13.9382L7.35333 9.04997L12.2415 13.9382C12.4735 14.1702 12.7882 14.3005 13.1163 14.3005C13.4444 14.3005 13.759 14.1702 13.991 13.9382C14.223 13.7062 14.3533 13.3915 14.3533 13.0634C14.3533 12.7354 14.223 12.4207 13.991 12.1887L9.09971 7.30051Z" fill="#404553"/>
</svg>
